<?xml version="1.0" encoding="UTF-8"?>
<svg id="Geometric_pattern" xmlns="http://www.w3.org/2000/svg" version="1.1" viewBox="0 0 2400 2400">
  <!-- Generator: Adobe Illustrator 30.2.1, SVG Export Plug-In . SVG Version: 2.1.1 Build 1)  -->
  <defs>
    <style>
      .st0 {
        fill: #0c1d98;
      }
    </style>
  </defs>
  <g id="Pattern__x26__Background">
    <g id="Pattern">
      <polygon class="st0" points="2355 2325 2355 2315 2325 2315 2325 2285 2315 2285 2315 2315 2285 2315 2285 2325 2315 2325 2315 2355 2325 2355 2325 2325 2355 2325"/>
      <polygon class="st0" points="2195 2325 2195 2315 2165 2315 2165 2285 2155 2285 2155 2315 2125 2315 2125 2325 2155 2325 2155 2355 2165 2355 2165 2325 2195 2325"/>
      <polygon class="st0" points="2035 2325 2035 2315 2005 2315 2005 2285 1995 2285 1995 2315 1965 2315 1965 2325 1995 2325 1995 2355 2005 2355 2005 2325 2035 2325"/>
      <polygon class="st0" points="1875 2325 1875 2315 1845 2315 1845 2285 1835 2285 1835 2315 1805 2315 1805 2325 1835 2325 1835 2355 1845 2355 1845 2325 1875 2325"/>
      <polygon class="st0" points="1715 2325 1715 2315 1685 2315 1685 2285 1675 2285 1675 2315 1645 2315 1645 2325 1675 2325 1675 2355 1685 2355 1685 2325 1715 2325"/>
      <polygon class="st0" points="1555 2325 1555 2315 1525 2315 1525 2285 1515 2285 1515 2315 1485 2315 1485 2325 1515 2325 1515 2355 1525 2355 1525 2325 1555 2325"/>
      <polygon class="st0" points="1395 2325 1395 2315 1365 2315 1365 2285 1355 2285 1355 2315 1325 2315 1325 2325 1355 2325 1355 2355 1365 2355 1365 2325 1395 2325"/>
      <polygon class="st0" points="1235 2325 1235 2315 1205 2315 1205 2285 1195 2285 1195 2315 1165 2315 1165 2325 1195 2325 1195 2355 1205 2355 1205 2325 1235 2325"/>
      <polygon class="st0" points="1075 2325 1075 2315 1045 2315 1045 2285 1035 2285 1035 2315 1005 2315 1005 2325 1035 2325 1035 2355 1045 2355 1045 2325 1075 2325"/>
      <polygon class="st0" points="915 2325 915 2315 885 2315 885 2285 875 2285 875 2315 845 2315 845 2325 875 2325 875 2355 885 2355 885 2325 915 2325"/>
      <polygon class="st0" points="755 2325 755 2315 725 2315 725 2285 715 2285 715 2315 685 2315 685 2325 715 2325 715 2355 725 2355 725 2325 755 2325"/>
      <polygon class="st0" points="595 2325 595 2315 565 2315 565 2285 555 2285 555 2315 525 2315 525 2325 555 2325 555 2355 565 2355 565 2325 595 2325"/>
      <polygon class="st0" points="435 2325 435 2315 405 2315 405 2285 395 2285 395 2315 365 2315 365 2325 395 2325 395 2355 405 2355 405 2325 435 2325"/>
      <polygon class="st0" points="275 2325 275 2315 245 2315 245 2285 235 2285 235 2315 205 2315 205 2325 235 2325 235 2355 245 2355 245 2325 275 2325"/>
      <polygon class="st0" points="115 2325 115 2315 85 2315 85 2285 75 2285 75 2315 45 2315 45 2325 75 2325 75 2355 85 2355 85 2325 115 2325"/>
      <polygon class="st0" points="2355 2165 2355 2155 2325 2155 2325 2125 2315 2125 2315 2155 2285 2155 2285 2165 2315 2165 2315 2195 2325 2195 2325 2165 2355 2165"/>
      <polygon class="st0" points="2195 2165 2195 2155 2165 2155 2165 2125 2155 2125 2155 2155 2125 2155 2125 2165 2155 2165 2155 2195 2165 2195 2165 2165 2195 2165"/>
      <polygon class="st0" points="2035 2165 2035 2155 2005 2155 2005 2125 1995 2125 1995 2155 1965 2155 1965 2165 1995 2165 1995 2195 2005 2195 2005 2165 2035 2165"/>
      <polygon class="st0" points="1875 2165 1875 2155 1845 2155 1845 2125 1835 2125 1835 2155 1805 2155 1805 2165 1835 2165 1835 2195 1845 2195 1845 2165 1875 2165"/>
      <polygon class="st0" points="1715 2165 1715 2155 1685 2155 1685 2125 1675 2125 1675 2155 1645 2155 1645 2165 1675 2165 1675 2195 1685 2195 1685 2165 1715 2165"/>
      <polygon class="st0" points="1555 2165 1555 2155 1525 2155 1525 2125 1515 2125 1515 2155 1485 2155 1485 2165 1515 2165 1515 2195 1525 2195 1525 2165 1555 2165"/>
      <polygon class="st0" points="1395 2165 1395 2155 1365 2155 1365 2125 1355 2125 1355 2155 1325 2155 1325 2165 1355 2165 1355 2195 1365 2195 1365 2165 1395 2165"/>
      <polygon class="st0" points="1235 2165 1235 2155 1205 2155 1205 2125 1195 2125 1195 2155 1165 2155 1165 2165 1195 2165 1195 2195 1205 2195 1205 2165 1235 2165"/>
      <polygon class="st0" points="1075 2165 1075 2155 1045 2155 1045 2125 1035 2125 1035 2155 1005 2155 1005 2165 1035 2165 1035 2195 1045 2195 1045 2165 1075 2165"/>
      <polygon class="st0" points="915 2165 915 2155 885 2155 885 2125 875 2125 875 2155 845 2155 845 2165 875 2165 875 2195 885 2195 885 2165 915 2165"/>
      <polygon class="st0" points="755 2165 755 2155 725 2155 725 2125 715 2125 715 2155 685 2155 685 2165 715 2165 715 2195 725 2195 725 2165 755 2165"/>
      <polygon class="st0" points="595 2165 595 2155 565 2155 565 2125 555 2125 555 2155 525 2155 525 2165 555 2165 555 2195 565 2195 565 2165 595 2165"/>
      <polygon class="st0" points="435 2165 435 2155 405 2155 405 2125 395 2125 395 2155 365 2155 365 2165 395 2165 395 2195 405 2195 405 2165 435 2165"/>
      <polygon class="st0" points="275 2165 275 2155 245 2155 245 2125 235 2125 235 2155 205 2155 205 2165 235 2165 235 2195 245 2195 245 2165 275 2165"/>
      <polygon class="st0" points="115 2165 115 2155 85 2155 85 2125 75 2125 75 2155 45 2155 45 2165 75 2165 75 2195 85 2195 85 2165 115 2165"/>
      <polygon class="st0" points="2355 2005 2355 1995 2325 1995 2325 1965 2315 1965 2315 1995 2285 1995 2285 2005 2315 2005 2315 2035 2325 2035 2325 2005 2355 2005"/>
      <polygon class="st0" points="2195 2005 2195 1995 2165 1995 2165 1965 2155 1965 2155 1995 2125 1995 2125 2005 2155 2005 2155 2035 2165 2035 2165 2005 2195 2005"/>
      <polygon class="st0" points="2035 2005 2035 1995 2005 1995 2005 1965 1995 1965 1995 1995 1965 1995 1965 2005 1995 2005 1995 2035 2005 2035 2005 2005 2035 2005"/>
      <polygon class="st0" points="1875 2005 1875 1995 1845 1995 1845 1965 1835 1965 1835 1995 1805 1995 1805 2005 1835 2005 1835 2035 1845 2035 1845 2005 1875 2005"/>
      <polygon class="st0" points="1715 2005 1715 1995 1685 1995 1685 1965 1675 1965 1675 1995 1645 1995 1645 2005 1675 2005 1675 2035 1685 2035 1685 2005 1715 2005"/>
      <polygon class="st0" points="1555 2005 1555 1995 1525 1995 1525 1965 1515 1965 1515 1995 1485 1995 1485 2005 1515 2005 1515 2035 1525 2035 1525 2005 1555 2005"/>
      <polygon class="st0" points="1395 2005 1395 1995 1365 1995 1365 1965 1355 1965 1355 1995 1325 1995 1325 2005 1355 2005 1355 2035 1365 2035 1365 2005 1395 2005"/>
      <polygon class="st0" points="1235 2005 1235 1995 1205 1995 1205 1965 1195 1965 1195 1995 1165 1995 1165 2005 1195 2005 1195 2035 1205 2035 1205 2005 1235 2005"/>
      <polygon class="st0" points="1075 2005 1075 1995 1045 1995 1045 1965 1035 1965 1035 1995 1005 1995 1005 2005 1035 2005 1035 2035 1045 2035 1045 2005 1075 2005"/>
      <polygon class="st0" points="915 2005 915 1995 885 1995 885 1965 875 1965 875 1995 845 1995 845 2005 875 2005 875 2035 885 2035 885 2005 915 2005"/>
      <polygon class="st0" points="755 2005 755 1995 725 1995 725 1965 715 1965 715 1995 685 1995 685 2005 715 2005 715 2035 725 2035 725 2005 755 2005"/>
      <polygon class="st0" points="595 2005 595 1995 565 1995 565 1965 555 1965 555 1995 525 1995 525 2005 555 2005 555 2035 565 2035 565 2005 595 2005"/>
      <polygon class="st0" points="435 2005 435 1995 405 1995 405 1965 395 1965 395 1995 365 1995 365 2005 395 2005 395 2035 405 2035 405 2005 435 2005"/>
      <polygon class="st0" points="275 2005 275 1995 245 1995 245 1965 235 1965 235 1995 205 1995 205 2005 235 2005 235 2035 245 2035 245 2005 275 2005"/>
      <polygon class="st0" points="115 2005 115 1995 85 1995 85 1965 75 1965 75 1995 45 1995 45 2005 75 2005 75 2035 85 2035 85 2005 115 2005"/>
      <polygon class="st0" points="2355 1845 2355 1835 2325 1835 2325 1805 2315 1805 2315 1835 2285 1835 2285 1845 2315 1845 2315 1875 2325 1875 2325 1845 2355 1845"/>
      <polygon class="st0" points="2195 1845 2195 1835 2165 1835 2165 1805 2155 1805 2155 1835 2125 1835 2125 1845 2155 1845 2155 1875 2165 1875 2165 1845 2195 1845"/>
      <polygon class="st0" points="2035 1845 2035 1835 2005 1835 2005 1805 1995 1805 1995 1835 1965 1835 1965 1845 1995 1845 1995 1875 2005 1875 2005 1845 2035 1845"/>
      <polygon class="st0" points="1875 1845 1875 1835 1845 1835 1845 1805 1835 1805 1835 1835 1805 1835 1805 1845 1835 1845 1835 1875 1845 1875 1845 1845 1875 1845"/>
      <polygon class="st0" points="1715 1845 1715 1835 1685 1835 1685 1805 1675 1805 1675 1835 1645 1835 1645 1845 1675 1845 1675 1875 1685 1875 1685 1845 1715 1845"/>
      <polygon class="st0" points="1555 1845 1555 1835 1525 1835 1525 1805 1515 1805 1515 1835 1485 1835 1485 1845 1515 1845 1515 1875 1525 1875 1525 1845 1555 1845"/>
      <polygon class="st0" points="1395 1845 1395 1835 1365 1835 1365 1805 1355 1805 1355 1835 1325 1835 1325 1845 1355 1845 1355 1875 1365 1875 1365 1845 1395 1845"/>
      <polygon class="st0" points="1235 1845 1235 1835 1205 1835 1205 1805 1195 1805 1195 1835 1165 1835 1165 1845 1195 1845 1195 1875 1205 1875 1205 1845 1235 1845"/>
      <polygon class="st0" points="1075 1845 1075 1835 1045 1835 1045 1805 1035 1805 1035 1835 1005 1835 1005 1845 1035 1845 1035 1875 1045 1875 1045 1845 1075 1845"/>
      <polygon class="st0" points="915 1845 915 1835 885 1835 885 1805 875 1805 875 1835 845 1835 845 1845 875 1845 875 1875 885 1875 885 1845 915 1845"/>
      <polygon class="st0" points="755 1845 755 1835 725 1835 725 1805 715 1805 715 1835 685 1835 685 1845 715 1845 715 1875 725 1875 725 1845 755 1845"/>
      <polygon class="st0" points="595 1845 595 1835 565 1835 565 1805 555 1805 555 1835 525 1835 525 1845 555 1845 555 1875 565 1875 565 1845 595 1845"/>
      <polygon class="st0" points="435 1845 435 1835 405 1835 405 1805 395 1805 395 1835 365 1835 365 1845 395 1845 395 1875 405 1875 405 1845 435 1845"/>
      <polygon class="st0" points="275 1845 275 1835 245 1835 245 1805 235 1805 235 1835 205 1835 205 1845 235 1845 235 1875 245 1875 245 1845 275 1845"/>
      <polygon class="st0" points="115 1845 115 1835 85 1835 85 1805 75 1805 75 1835 45 1835 45 1845 75 1845 75 1875 85 1875 85 1845 115 1845"/>
      <polygon class="st0" points="2355 1685 2355 1675 2325 1675 2325 1645 2315 1645 2315 1675 2285 1675 2285 1685 2315 1685 2315 1715 2325 1715 2325 1685 2355 1685"/>
      <polygon class="st0" points="2195 1685 2195 1675 2165 1675 2165 1645 2155 1645 2155 1675 2125 1675 2125 1685 2155 1685 2155 1715 2165 1715 2165 1685 2195 1685"/>
      <polygon class="st0" points="2035 1685 2035 1675 2005 1675 2005 1645 1995 1645 1995 1675 1965 1675 1965 1685 1995 1685 1995 1715 2005 1715 2005 1685 2035 1685"/>
      <polygon class="st0" points="1875 1685 1875 1675 1845 1675 1845 1645 1835 1645 1835 1675 1805 1675 1805 1685 1835 1685 1835 1715 1845 1715 1845 1685 1875 1685"/>
      <polygon class="st0" points="1715 1685 1715 1675 1685 1675 1685 1645 1675 1645 1675 1675 1645 1675 1645 1685 1675 1685 1675 1715 1685 1715 1685 1685 1715 1685"/>
      <polygon class="st0" points="1555 1685 1555 1675 1525 1675 1525 1645 1515 1645 1515 1675 1485 1675 1485 1685 1515 1685 1515 1715 1525 1715 1525 1685 1555 1685"/>
      <polygon class="st0" points="1395 1685 1395 1675 1365 1675 1365 1645 1355 1645 1355 1675 1325 1675 1325 1685 1355 1685 1355 1715 1365 1715 1365 1685 1395 1685"/>
      <polygon class="st0" points="1235 1685 1235 1675 1205 1675 1205 1645 1195 1645 1195 1675 1165 1675 1165 1685 1195 1685 1195 1715 1205 1715 1205 1685 1235 1685"/>
      <polygon class="st0" points="1075 1685 1075 1675 1045 1675 1045 1645 1035 1645 1035 1675 1005 1675 1005 1685 1035 1685 1035 1715 1045 1715 1045 1685 1075 1685"/>
      <polygon class="st0" points="915 1685 915 1675 885 1675 885 1645 875 1645 875 1675 845 1675 845 1685 875 1685 875 1715 885 1715 885 1685 915 1685"/>
      <polygon class="st0" points="755 1685 755 1675 725 1675 725 1645 715 1645 715 1675 685 1675 685 1685 715 1685 715 1715 725 1715 725 1685 755 1685"/>
      <polygon class="st0" points="595 1685 595 1675 565 1675 565 1645 555 1645 555 1675 525 1675 525 1685 555 1685 555 1715 565 1715 565 1685 595 1685"/>
      <polygon class="st0" points="435 1685 435 1675 405 1675 405 1645 395 1645 395 1675 365 1675 365 1685 395 1685 395 1715 405 1715 405 1685 435 1685"/>
      <polygon class="st0" points="275 1685 275 1675 245 1675 245 1645 235 1645 235 1675 205 1675 205 1685 235 1685 235 1715 245 1715 245 1685 275 1685"/>
      <polygon class="st0" points="115 1685 115 1675 85 1675 85 1645 75 1645 75 1675 45 1675 45 1685 75 1685 75 1715 85 1715 85 1685 115 1685"/>
      <polygon class="st0" points="2355 1525 2355 1515 2325 1515 2325 1485 2315 1485 2315 1515 2285 1515 2285 1525 2315 1525 2315 1555 2325 1555 2325 1525 2355 1525"/>
      <polygon class="st0" points="2195 1525 2195 1515 2165 1515 2165 1485 2155 1485 2155 1515 2125 1515 2125 1525 2155 1525 2155 1555 2165 1555 2165 1525 2195 1525"/>
      <polygon class="st0" points="2035 1525 2035 1515 2005 1515 2005 1485 1995 1485 1995 1515 1965 1515 1965 1525 1995 1525 1995 1555 2005 1555 2005 1525 2035 1525"/>
      <polygon class="st0" points="1875 1525 1875 1515 1845 1515 1845 1485 1835 1485 1835 1515 1805 1515 1805 1525 1835 1525 1835 1555 1845 1555 1845 1525 1875 1525"/>
      <polygon class="st0" points="1715 1525 1715 1515 1685 1515 1685 1485 1675 1485 1675 1515 1645 1515 1645 1525 1675 1525 1675 1555 1685 1555 1685 1525 1715 1525"/>
      <polygon class="st0" points="1555 1525 1555 1515 1525 1515 1525 1485 1515 1485 1515 1515 1485 1515 1485 1525 1515 1525 1515 1555 1525 1555 1525 1525 1555 1525"/>
      <polygon class="st0" points="1395 1525 1395 1515 1365 1515 1365 1485 1355 1485 1355 1515 1325 1515 1325 1525 1355 1525 1355 1555 1365 1555 1365 1525 1395 1525"/>
      <polygon class="st0" points="1235 1525 1235 1515 1205 1515 1205 1485 1195 1485 1195 1515 1165 1515 1165 1525 1195 1525 1195 1555 1205 1555 1205 1525 1235 1525"/>
      <polygon class="st0" points="1075 1525 1075 1515 1045 1515 1045 1485 1035 1485 1035 1515 1005 1515 1005 1525 1035 1525 1035 1555 1045 1555 1045 1525 1075 1525"/>
      <polygon class="st0" points="915 1525 915 1515 885 1515 885 1485 875 1485 875 1515 845 1515 845 1525 875 1525 875 1555 885 1555 885 1525 915 1525"/>
      <polygon class="st0" points="755 1525 755 1515 725 1515 725 1485 715 1485 715 1515 685 1515 685 1525 715 1525 715 1555 725 1555 725 1525 755 1525"/>
      <polygon class="st0" points="595 1525 595 1515 565 1515 565 1485 555 1485 555 1515 525 1515 525 1525 555 1525 555 1555 565 1555 565 1525 595 1525"/>
      <polygon class="st0" points="435 1525 435 1515 405 1515 405 1485 395 1485 395 1515 365 1515 365 1525 395 1525 395 1555 405 1555 405 1525 435 1525"/>
      <polygon class="st0" points="275 1525 275 1515 245 1515 245 1485 235 1485 235 1515 205 1515 205 1525 235 1525 235 1555 245 1555 245 1525 275 1525"/>
      <polygon class="st0" points="115 1525 115 1515 85 1515 85 1485 75 1485 75 1515 45 1515 45 1525 75 1525 75 1555 85 1555 85 1525 115 1525"/>
      <polygon class="st0" points="2355 1365 2355 1355 2325 1355 2325 1325 2315 1325 2315 1355 2285 1355 2285 1365 2315 1365 2315 1395 2325 1395 2325 1365 2355 1365"/>
      <polygon class="st0" points="2195 1365 2195 1355 2165 1355 2165 1325 2155 1325 2155 1355 2125 1355 2125 1365 2155 1365 2155 1395 2165 1395 2165 1365 2195 1365"/>
      <polygon class="st0" points="2035 1365 2035 1355 2005 1355 2005 1325 1995 1325 1995 1355 1965 1355 1965 1365 1995 1365 1995 1395 2005 1395 2005 1365 2035 1365"/>
      <polygon class="st0" points="1875 1365 1875 1355 1845 1355 1845 1325 1835 1325 1835 1355 1805 1355 1805 1365 1835 1365 1835 1395 1845 1395 1845 1365 1875 1365"/>
      <polygon class="st0" points="1715 1365 1715 1355 1685 1355 1685 1325 1675 1325 1675 1355 1645 1355 1645 1365 1675 1365 1675 1395 1685 1395 1685 1365 1715 1365"/>
      <polygon class="st0" points="1555 1365 1555 1355 1525 1355 1525 1325 1515 1325 1515 1355 1485 1355 1485 1365 1515 1365 1515 1395 1525 1395 1525 1365 1555 1365"/>
      <polygon class="st0" points="1395 1365 1395 1355 1365 1355 1365 1325 1355 1325 1355 1355 1325 1355 1325 1365 1355 1365 1355 1395 1365 1395 1365 1365 1395 1365"/>
      <polygon class="st0" points="1235 1365 1235 1355 1205 1355 1205 1325 1195 1325 1195 1355 1165 1355 1165 1365 1195 1365 1195 1395 1205 1395 1205 1365 1235 1365"/>
      <polygon class="st0" points="1075 1365 1075 1355 1045 1355 1045 1325 1035 1325 1035 1355 1005 1355 1005 1365 1035 1365 1035 1395 1045 1395 1045 1365 1075 1365"/>
      <polygon class="st0" points="915 1365 915 1355 885 1355 885 1325 875 1325 875 1355 845 1355 845 1365 875 1365 875 1395 885 1395 885 1365 915 1365"/>
      <polygon class="st0" points="755 1365 755 1355 725 1355 725 1325 715 1325 715 1355 685 1355 685 1365 715 1365 715 1395 725 1395 725 1365 755 1365"/>
      <polygon class="st0" points="595 1365 595 1355 565 1355 565 1325 555 1325 555 1355 525 1355 525 1365 555 1365 555 1395 565 1395 565 1365 595 1365"/>
      <polygon class="st0" points="435 1365 435 1355 405 1355 405 1325 395 1325 395 1355 365 1355 365 1365 395 1365 395 1395 405 1395 405 1365 435 1365"/>
      <polygon class="st0" points="275 1365 275 1355 245 1355 245 1325 235 1325 235 1355 205 1355 205 1365 235 1365 235 1395 245 1395 245 1365 275 1365"/>
      <polygon class="st0" points="115 1365 115 1355 85 1355 85 1325 75 1325 75 1355 45 1355 45 1365 75 1365 75 1395 85 1395 85 1365 115 1365"/>
      <polygon class="st0" points="2355 1205 2355 1195 2325 1195 2325 1165 2315 1165 2315 1195 2285 1195 2285 1205 2315 1205 2315 1235 2325 1235 2325 1205 2355 1205"/>
      <polygon class="st0" points="2195 1205 2195 1195 2165 1195 2165 1165 2155 1165 2155 1195 2125 1195 2125 1205 2155 1205 2155 1235 2165 1235 2165 1205 2195 1205"/>
      <polygon class="st0" points="2035 1205 2035 1195 2005 1195 2005 1165 1995 1165 1995 1195 1965 1195 1965 1205 1995 1205 1995 1235 2005 1235 2005 1205 2035 1205"/>
      <polygon class="st0" points="1875 1205 1875 1195 1845 1195 1845 1165 1835 1165 1835 1195 1805 1195 1805 1205 1835 1205 1835 1235 1845 1235 1845 1205 1875 1205"/>
      <polygon class="st0" points="1715 1205 1715 1195 1685 1195 1685 1165 1675 1165 1675 1195 1645 1195 1645 1205 1675 1205 1675 1235 1685 1235 1685 1205 1715 1205"/>
      <polygon class="st0" points="1555 1205 1555 1195 1525 1195 1525 1165 1515 1165 1515 1195 1485 1195 1485 1205 1515 1205 1515 1235 1525 1235 1525 1205 1555 1205"/>
      <polygon class="st0" points="1395 1205 1395 1195 1365 1195 1365 1165 1355 1165 1355 1195 1325 1195 1325 1205 1355 1205 1355 1235 1365 1235 1365 1205 1395 1205"/>
      <polygon class="st0" points="1235 1205 1235 1195 1205 1195 1205 1165 1195 1165 1195 1195 1165 1195 1165 1205 1195 1205 1195 1235 1205 1235 1205 1205 1235 1205"/>
      <polygon class="st0" points="1075 1205 1075 1195 1045 1195 1045 1165 1035 1165 1035 1195 1005 1195 1005 1205 1035 1205 1035 1235 1045 1235 1045 1205 1075 1205"/>
      <polygon class="st0" points="915 1205 915 1195 885 1195 885 1165 875 1165 875 1195 845 1195 845 1205 875 1205 875 1235 885 1235 885 1205 915 1205"/>
      <polygon class="st0" points="755 1205 755 1195 725 1195 725 1165 715 1165 715 1195 685 1195 685 1205 715 1205 715 1235 725 1235 725 1205 755 1205"/>
      <polygon class="st0" points="595 1205 595 1195 565 1195 565 1165 555 1165 555 1195 525 1195 525 1205 555 1205 555 1235 565 1235 565 1205 595 1205"/>
      <polygon class="st0" points="435 1205 435 1195 405 1195 405 1165 395 1165 395 1195 365 1195 365 1205 395 1205 395 1235 405 1235 405 1205 435 1205"/>
      <polygon class="st0" points="275 1205 275 1195 245 1195 245 1165 235 1165 235 1195 205 1195 205 1205 235 1205 235 1235 245 1235 245 1205 275 1205"/>
      <polygon class="st0" points="115 1205 115 1195 85 1195 85 1165 75 1165 75 1195 45 1195 45 1205 75 1205 75 1235 85 1235 85 1205 115 1205"/>
      <polygon class="st0" points="2355 1045 2355 1035 2325 1035 2325 1005 2315 1005 2315 1035 2285 1035 2285 1045 2315 1045 2315 1075 2325 1075 2325 1045 2355 1045"/>
      <polygon class="st0" points="2195 1045 2195 1035 2165 1035 2165 1005 2155 1005 2155 1035 2125 1035 2125 1045 2155 1045 2155 1075 2165 1075 2165 1045 2195 1045"/>
      <polygon class="st0" points="2035 1045 2035 1035 2005 1035 2005 1005 1995 1005 1995 1035 1965 1035 1965 1045 1995 1045 1995 1075 2005 1075 2005 1045 2035 1045"/>
      <polygon class="st0" points="1875 1045 1875 1035 1845 1035 1845 1005 1835 1005 1835 1035 1805 1035 1805 1045 1835 1045 1835 1075 1845 1075 1845 1045 1875 1045"/>
      <polygon class="st0" points="1715 1045 1715 1035 1685 1035 1685 1005 1675 1005 1675 1035 1645 1035 1645 1045 1675 1045 1675 1075 1685 1075 1685 1045 1715 1045"/>
      <polygon class="st0" points="1555 1045 1555 1035 1525 1035 1525 1005 1515 1005 1515 1035 1485 1035 1485 1045 1515 1045 1515 1075 1525 1075 1525 1045 1555 1045"/>
      <polygon class="st0" points="1395 1045 1395 1035 1365 1035 1365 1005 1355 1005 1355 1035 1325 1035 1325 1045 1355 1045 1355 1075 1365 1075 1365 1045 1395 1045"/>
      <polygon class="st0" points="1235 1045 1235 1035 1205 1035 1205 1005 1195 1005 1195 1035 1165 1035 1165 1045 1195 1045 1195 1075 1205 1075 1205 1045 1235 1045"/>
      <polygon class="st0" points="1075 1045 1075 1035 1045 1035 1045 1005 1035 1005 1035 1035 1005 1035 1005 1045 1035 1045 1035 1075 1045 1075 1045 1045 1075 1045"/>
      <polygon class="st0" points="915 1045 915 1035 885 1035 885 1005 875 1005 875 1035 845 1035 845 1045 875 1045 875 1075 885 1075 885 1045 915 1045"/>
      <polygon class="st0" points="755 1045 755 1035 725 1035 725 1005 715 1005 715 1035 685 1035 685 1045 715 1045 715 1075 725 1075 725 1045 755 1045"/>
      <polygon class="st0" points="595 1045 595 1035 565 1035 565 1005 555 1005 555 1035 525 1035 525 1045 555 1045 555 1075 565 1075 565 1045 595 1045"/>
      <polygon class="st0" points="435 1045 435 1035 405 1035 405 1005 395 1005 395 1035 365 1035 365 1045 395 1045 395 1075 405 1075 405 1045 435 1045"/>
      <polygon class="st0" points="275 1045 275 1035 245 1035 245 1005 235 1005 235 1035 205 1035 205 1045 235 1045 235 1075 245 1075 245 1045 275 1045"/>
      <polygon class="st0" points="115 1045 115 1035 85 1035 85 1005 75 1005 75 1035 45 1035 45 1045 75 1045 75 1075 85 1075 85 1045 115 1045"/>
      <polygon class="st0" points="2355 885 2355 875 2325 875 2325 845 2315 845 2315 875 2285 875 2285 885 2315 885 2315 915 2325 915 2325 885 2355 885"/>
      <polygon class="st0" points="2195 885 2195 875 2165 875 2165 845 2155 845 2155 875 2125 875 2125 885 2155 885 2155 915 2165 915 2165 885 2195 885"/>
      <polygon class="st0" points="2035 885 2035 875 2005 875 2005 845 1995 845 1995 875 1965 875 1965 885 1995 885 1995 915 2005 915 2005 885 2035 885"/>
      <polygon class="st0" points="1875 885 1875 875 1845 875 1845 845 1835 845 1835 875 1805 875 1805 885 1835 885 1835 915 1845 915 1845 885 1875 885"/>
      <polygon class="st0" points="1715 885 1715 875 1685 875 1685 845 1675 845 1675 875 1645 875 1645 885 1675 885 1675 915 1685 915 1685 885 1715 885"/>
      <polygon class="st0" points="1555 885 1555 875 1525 875 1525 845 1515 845 1515 875 1485 875 1485 885 1515 885 1515 915 1525 915 1525 885 1555 885"/>
      <polygon class="st0" points="1395 885 1395 875 1365 875 1365 845 1355 845 1355 875 1325 875 1325 885 1355 885 1355 915 1365 915 1365 885 1395 885"/>
      <polygon class="st0" points="1235 885 1235 875 1205 875 1205 845 1195 845 1195 875 1165 875 1165 885 1195 885 1195 915 1205 915 1205 885 1235 885"/>
      <polygon class="st0" points="1075 885 1075 875 1045 875 1045 845 1035 845 1035 875 1005 875 1005 885 1035 885 1035 915 1045 915 1045 885 1075 885"/>
      <polygon class="st0" points="915 885 915 875 885 875 885 845 875 845 875 875 845 875 845 885 875 885 875 915 885 915 885 885 915 885"/>
      <polygon class="st0" points="755 885 755 875 725 875 725 845 715 845 715 875 685 875 685 885 715 885 715 915 725 915 725 885 755 885"/>
      <polygon class="st0" points="595 885 595 875 565 875 565 845 555 845 555 875 525 875 525 885 555 885 555 915 565 915 565 885 595 885"/>
      <polygon class="st0" points="435 885 435 875 405 875 405 845 395 845 395 875 365 875 365 885 395 885 395 915 405 915 405 885 435 885"/>
      <polygon class="st0" points="275 885 275 875 245 875 245 845 235 845 235 875 205 875 205 885 235 885 235 915 245 915 245 885 275 885"/>
      <polygon class="st0" points="115 885 115 875 85 875 85 845 75 845 75 875 45 875 45 885 75 885 75 915 85 915 85 885 115 885"/>
      <polygon class="st0" points="2355 725 2355 715 2325 715 2325 685 2315 685 2315 715 2285 715 2285 725 2315 725 2315 755 2325 755 2325 725 2355 725"/>
      <polygon class="st0" points="2195 725 2195 715 2165 715 2165 685 2155 685 2155 715 2125 715 2125 725 2155 725 2155 755 2165 755 2165 725 2195 725"/>
      <polygon class="st0" points="2035 725 2035 715 2005 715 2005 685 1995 685 1995 715 1965 715 1965 725 1995 725 1995 755 2005 755 2005 725 2035 725"/>
      <polygon class="st0" points="1875 725 1875 715 1845 715 1845 685 1835 685 1835 715 1805 715 1805 725 1835 725 1835 755 1845 755 1845 725 1875 725"/>
      <polygon class="st0" points="1715 725 1715 715 1685 715 1685 685 1675 685 1675 715 1645 715 1645 725 1675 725 1675 755 1685 755 1685 725 1715 725"/>
      <polygon class="st0" points="1555 725 1555 715 1525 715 1525 685 1515 685 1515 715 1485 715 1485 725 1515 725 1515 755 1525 755 1525 725 1555 725"/>
      <polygon class="st0" points="1395 725 1395 715 1365 715 1365 685 1355 685 1355 715 1325 715 1325 725 1355 725 1355 755 1365 755 1365 725 1395 725"/>
      <polygon class="st0" points="1235 725 1235 715 1205 715 1205 685 1195 685 1195 715 1165 715 1165 725 1195 725 1195 755 1205 755 1205 725 1235 725"/>
      <polygon class="st0" points="1075 725 1075 715 1045 715 1045 685 1035 685 1035 715 1005 715 1005 725 1035 725 1035 755 1045 755 1045 725 1075 725"/>
      <polygon class="st0" points="915 725 915 715 885 715 885 685 875 685 875 715 845 715 845 725 875 725 875 755 885 755 885 725 915 725"/>
      <polygon class="st0" points="755 725 755 715 725 715 725 685 715 685 715 715 685 715 685 725 715 725 715 755 725 755 725 725 755 725"/>
      <polygon class="st0" points="595 725 595 715 565 715 565 685 555 685 555 715 525 715 525 725 555 725 555 755 565 755 565 725 595 725"/>
      <polygon class="st0" points="435 725 435 715 405 715 405 685 395 685 395 715 365 715 365 725 395 725 395 755 405 755 405 725 435 725"/>
      <polygon class="st0" points="275 725 275 715 245 715 245 685 235 685 235 715 205 715 205 725 235 725 235 755 245 755 245 725 275 725"/>
      <polygon class="st0" points="115 725 115 715 85 715 85 685 75 685 75 715 45 715 45 725 75 725 75 755 85 755 85 725 115 725"/>
      <polygon class="st0" points="2355 565 2355 555 2325 555 2325 525 2315 525 2315 555 2285 555 2285 565 2315 565 2315 595 2325 595 2325 565 2355 565"/>
      <polygon class="st0" points="2195 565 2195 555 2165 555 2165 525 2155 525 2155 555 2125 555 2125 565 2155 565 2155 595 2165 595 2165 565 2195 565"/>
      <polygon class="st0" points="2035 565 2035 555 2005 555 2005 525 1995 525 1995 555 1965 555 1965 565 1995 565 1995 595 2005 595 2005 565 2035 565"/>
      <polygon class="st0" points="1875 565 1875 555 1845 555 1845 525 1835 525 1835 555 1805 555 1805 565 1835 565 1835 595 1845 595 1845 565 1875 565"/>
      <polygon class="st0" points="1715 565 1715 555 1685 555 1685 525 1675 525 1675 555 1645 555 1645 565 1675 565 1675 595 1685 595 1685 565 1715 565"/>
      <polygon class="st0" points="1555 565 1555 555 1525 555 1525 525 1515 525 1515 555 1485 555 1485 565 1515 565 1515 595 1525 595 1525 565 1555 565"/>
      <polygon class="st0" points="1395 565 1395 555 1365 555 1365 525 1355 525 1355 555 1325 555 1325 565 1355 565 1355 595 1365 595 1365 565 1395 565"/>
      <polygon class="st0" points="1235 565 1235 555 1205 555 1205 525 1195 525 1195 555 1165 555 1165 565 1195 565 1195 595 1205 595 1205 565 1235 565"/>
      <polygon class="st0" points="1075 565 1075 555 1045 555 1045 525 1035 525 1035 555 1005 555 1005 565 1035 565 1035 595 1045 595 1045 565 1075 565"/>
      <polygon class="st0" points="915 565 915 555 885 555 885 525 875 525 875 555 845 555 845 565 875 565 875 595 885 595 885 565 915 565"/>
      <polygon class="st0" points="755 565 755 555 725 555 725 525 715 525 715 555 685 555 685 565 715 565 715 595 725 595 725 565 755 565"/>
      <polygon class="st0" points="595 565 595 555 565 555 565 525 555 525 555 555 525 555 525 565 555 565 555 595 565 595 565 565 595 565"/>
      <polygon class="st0" points="435 565 435 555 405 555 405 525 395 525 395 555 365 555 365 565 395 565 395 595 405 595 405 565 435 565"/>
      <polygon class="st0" points="275 565 275 555 245 555 245 525 235 525 235 555 205 555 205 565 235 565 235 595 245 595 245 565 275 565"/>
      <polygon class="st0" points="115 565 115 555 85 555 85 525 75 525 75 555 45 555 45 565 75 565 75 595 85 595 85 565 115 565"/>
      <polygon class="st0" points="2355 405 2355 395 2325 395 2325 365 2315 365 2315 395 2285 395 2285 405 2315 405 2315 435 2325 435 2325 405 2355 405"/>
      <polygon class="st0" points="2195 405 2195 395 2165 395 2165 365 2155 365 2155 395 2125 395 2125 405 2155 405 2155 435 2165 435 2165 405 2195 405"/>
      <polygon class="st0" points="2035 405 2035 395 2005 395 2005 365 1995 365 1995 395 1965 395 1965 405 1995 405 1995 435 2005 435 2005 405 2035 405"/>
      <polygon class="st0" points="1875 405 1875 395 1845 395 1845 365 1835 365 1835 395 1805 395 1805 405 1835 405 1835 435 1845 435 1845 405 1875 405"/>
      <polygon class="st0" points="1715 405 1715 395 1685 395 1685 365 1675 365 1675 395 1645 395 1645 405 1675 405 1675 435 1685 435 1685 405 1715 405"/>
      <polygon class="st0" points="1555 405 1555 395 1525 395 1525 365 1515 365 1515 395 1485 395 1485 405 1515 405 1515 435 1525 435 1525 405 1555 405"/>
      <polygon class="st0" points="1395 405 1395 395 1365 395 1365 365 1355 365 1355 395 1325 395 1325 405 1355 405 1355 435 1365 435 1365 405 1395 405"/>
      <polygon class="st0" points="1235 405 1235 395 1205 395 1205 365 1195 365 1195 395 1165 395 1165 405 1195 405 1195 435 1205 435 1205 405 1235 405"/>
      <polygon class="st0" points="1075 405 1075 395 1045 395 1045 365 1035 365 1035 395 1005 395 1005 405 1035 405 1035 435 1045 435 1045 405 1075 405"/>
      <polygon class="st0" points="915 405 915 395 885 395 885 365 875 365 875 395 845 395 845 405 875 405 875 435 885 435 885 405 915 405"/>
      <polygon class="st0" points="755 405 755 395 725 395 725 365 715 365 715 395 685 395 685 405 715 405 715 435 725 435 725 405 755 405"/>
      <polygon class="st0" points="595 405 595 395 565 395 565 365 555 365 555 395 525 395 525 405 555 405 555 435 565 435 565 405 595 405"/>
      <polygon class="st0" points="435 405 435 395 405 395 405 365 395 365 395 395 365 395 365 405 395 405 395 435 405 435 405 405 435 405"/>
      <polygon class="st0" points="275 405 275 395 245 395 245 365 235 365 235 395 205 395 205 405 235 405 235 435 245 435 245 405 275 405"/>
      <polygon class="st0" points="115 405 115 395 85 395 85 365 75 365 75 395 45 395 45 405 75 405 75 435 85 435 85 405 115 405"/>
      <polygon class="st0" points="2355 245 2355 235 2325 235 2325 205 2315 205 2315 235 2285 235 2285 245 2315 245 2315 275 2325 275 2325 245 2355 245"/>
      <polygon class="st0" points="2195 245 2195 235 2165 235 2165 205 2155 205 2155 235 2125 235 2125 245 2155 245 2155 275 2165 275 2165 245 2195 245"/>
      <polygon class="st0" points="2035 245 2035 235 2005 235 2005 205 1995 205 1995 235 1965 235 1965 245 1995 245 1995 275 2005 275 2005 245 2035 245"/>
      <polygon class="st0" points="1875 245 1875 235 1845 235 1845 205 1835 205 1835 235 1805 235 1805 245 1835 245 1835 275 1845 275 1845 245 1875 245"/>
      <polygon class="st0" points="1715 245 1715 235 1685 235 1685 205 1675 205 1675 235 1645 235 1645 245 1675 245 1675 275 1685 275 1685 245 1715 245"/>
      <polygon class="st0" points="1555 245 1555 235 1525 235 1525 205 1515 205 1515 235 1485 235 1485 245 1515 245 1515 275 1525 275 1525 245 1555 245"/>
      <polygon class="st0" points="1395 245 1395 235 1365 235 1365 205 1355 205 1355 235 1325 235 1325 245 1355 245 1355 275 1365 275 1365 245 1395 245"/>
      <polygon class="st0" points="1235 245 1235 235 1205 235 1205 205 1195 205 1195 235 1165 235 1165 245 1195 245 1195 275 1205 275 1205 245 1235 245"/>
      <polygon class="st0" points="1075 245 1075 235 1045 235 1045 205 1035 205 1035 235 1005 235 1005 245 1035 245 1035 275 1045 275 1045 245 1075 245"/>
      <polygon class="st0" points="915 245 915 235 885 235 885 205 875 205 875 235 845 235 845 245 875 245 875 275 885 275 885 245 915 245"/>
      <polygon class="st0" points="755 245 755 235 725 235 725 205 715 205 715 235 685 235 685 245 715 245 715 275 725 275 725 245 755 245"/>
      <polygon class="st0" points="595 245 595 235 565 235 565 205 555 205 555 235 525 235 525 245 555 245 555 275 565 275 565 245 595 245"/>
      <polygon class="st0" points="435 245 435 235 405 235 405 205 395 205 395 235 365 235 365 245 395 245 395 275 405 275 405 245 435 245"/>
      <polygon class="st0" points="275 245 275 235 245 235 245 205 235 205 235 235 205 235 205 245 235 245 235 275 245 275 245 245 275 245"/>
      <polygon class="st0" points="115 245 115 235 85 235 85 205 75 205 75 235 45 235 45 245 75 245 75 275 85 275 85 245 115 245"/>
      <polygon class="st0" points="2355 85 2355 75 2325 75 2325 45 2315 45 2315 75 2285 75 2285 85 2315 85 2315 115 2325 115 2325 85 2355 85"/>
      <polygon class="st0" points="2195 85 2195 75 2165 75 2165 45 2155 45 2155 75 2125 75 2125 85 2155 85 2155 115 2165 115 2165 85 2195 85"/>
      <polygon class="st0" points="2035 85 2035 75 2005 75 2005 45 1995 45 1995 75 1965 75 1965 85 1995 85 1995 115 2005 115 2005 85 2035 85"/>
      <polygon class="st0" points="1875 85 1875 75 1845 75 1845 45 1835 45 1835 75 1805 75 1805 85 1835 85 1835 115 1845 115 1845 85 1875 85"/>
      <polygon class="st0" points="1715 85 1715 75 1685 75 1685 45 1675 45 1675 75 1645 75 1645 85 1675 85 1675 115 1685 115 1685 85 1715 85"/>
      <polygon class="st0" points="1555 85 1555 75 1525 75 1525 45 1515 45 1515 75 1485 75 1485 85 1515 85 1515 115 1525 115 1525 85 1555 85"/>
      <polygon class="st0" points="1395 85 1395 75 1365 75 1365 45 1355 45 1355 75 1325 75 1325 85 1355 85 1355 115 1365 115 1365 85 1395 85"/>
      <polygon class="st0" points="1235 85 1235 75 1205 75 1205 45 1195 45 1195 75 1165 75 1165 85 1195 85 1195 115 1205 115 1205 85 1235 85"/>
      <polygon class="st0" points="1075 85 1075 75 1045 75 1045 45 1035 45 1035 75 1005 75 1005 85 1035 85 1035 115 1045 115 1045 85 1075 85"/>
      <polygon class="st0" points="915 85 915 75 885 75 885 45 875 45 875 75 845 75 845 85 875 85 875 115 885 115 885 85 915 85"/>
      <polygon class="st0" points="755 85 755 75 725 75 725 45 715 45 715 75 685 75 685 85 715 85 715 115 725 115 725 85 755 85"/>
      <polygon class="st0" points="595 85 595 75 565 75 565 45 555 45 555 75 525 75 525 85 555 85 555 115 565 115 565 85 595 85"/>
      <polygon class="st0" points="435 85 435 75 405 75 405 45 395 45 395 75 365 75 365 85 395 85 395 115 405 115 405 85 435 85"/>
      <polygon class="st0" points="275 85 275 75 245 75 245 45 235 45 235 75 205 75 205 85 235 85 235 115 245 115 245 85 275 85"/>
      <polygon class="st0" points="115 85 115 75 85 75 85 45 75 45 75 75 45 75 45 85 75 85 75 115 85 115 85 85 115 85"/>
    </g>
  </g>
</svg>