<?xml version="1.0" encoding="UTF-8"?>
<svg id="Layer_1" xmlns="http://www.w3.org/2000/svg" version="1.1" viewBox="0 0 350 100">
  <!-- Generator: Adobe Illustrator 30.1.0, SVG Export Plug-In . SVG Version: 2.1.1 Build 136)  -->
  <defs>
    <style>
      .st0 {
        fill: #dcd6f7;
      }

      .st1 {
        fill: #faf5ea;
      }
    </style>
  </defs>
  <path class="st1" d="M54.2,39.1v34.2h-10v-3.1c-2.4,2.5-5.6,4-9.9,4-9.9,0-17-7.7-17-17.9s7.1-17.2,17-17.2,7.5,1.3,9.9,3.7v-3.6s10,0,10,0ZM43.8,56.2c0-5-3.2-8.4-7.9-8.4s-7.9,3.6-7.9,8.4,3.2,8.4,7.9,8.4,7.9-3.4,7.9-8.4Z"/>
  <path class="st1" d="M90.4,51.6v21.7h-10.8v-19.6c0-3.7-2.5-5.8-5.8-5.8s-5.9,2.3-5.9,5.5v20h-10.8v-34.2h10.2v2.7c2.3-2.1,5.7-3.6,9.9-3.6,8,0,13.3,5.5,13.3,13.3h0Z"/>
  <path class="st1" d="M129.5,25.9v47.4h-10v-2.9c-2.5,2.4-5.8,3.8-9.9,3.8-9.9,0-17-7.7-17-17.9s6.9-17.9,16.8-17.9,6.8,1.1,9.3,3.2v-15.6h10.8,0ZM119.2,56.2c0-5-3.2-8.4-7.9-8.4s-7.8,3.6-7.8,8.4,3.2,8.4,7.8,8.4,7.9-3.4,7.9-8.4Z"/>
  <path class="st0" d="M165.2,38.7v34.2h-10.1v-2.8c-2.4,2.3-5.8,3.7-9.5,3.7-8.8,0-13.2-6-13.2-13.7v-21.3h10.8v19.9c0,3.2,2.1,5.5,5.6,5.5s5.6-2.3,5.6-5.5v-19.9h10.8Z"/>
  <path class="st0" d="M166.4,64.8l8.9-3.4c.9,2.9,3.2,4.5,6.7,4.5s3.8-1,3.8-2.5c0-5.4-17.8-2.8-17.8-14.5s5.4-10.6,14.1-10.6,12.1,2.8,13.4,7.6l-8.9,3.5c-.8-2.1-2.4-3.2-4.7-3.2s-3.3.8-3.3,2.3c0,4.9,17.8,1.8,17.8,14.3s-5.7,11.3-14.7,11.3-13.2-3.2-15.2-9.1h0Z"/>
  <path class="st1" d="M212.7,25.9h10.8v47.4h-10.8V25.9Z"/>
  <path class="st1" d="M263.1,39.1v34.2h-10v-3.1c-2.4,2.5-5.6,4-9.9,4-9.9,0-17.1-7.7-17.1-17.9s7.1-17.2,17.1-17.2,7.5,1.3,9.9,3.7v-3.6s10,0,10,0ZM252.7,56.2c0-5-3.2-8.4-7.9-8.4s-7.9,3.6-7.9,8.4,3.2,8.4,7.9,8.4,7.9-3.4,7.9-8.4Z"/>
  <path class="st1" d="M302.8,56.2c0,10.2-7.1,17.9-17,17.9s-7.4-1.4-9.9-3.8v2.9h-10V25.9h10.8v15.6c2.5-2.1,5.6-3.2,9.3-3.2,9.9,0,16.7,7.7,16.7,17.9h0ZM292.1,56.2c0-4.9-3.3-8.4-7.9-8.4s-8,3.4-8,8.4,3.2,8.4,8,8.4,7.9-3.5,7.9-8.4Z"/>
  <path class="st1" d="M302.8,65l9-3.4c.9,2.9,3.2,4.5,6.7,4.5s3.8-1,3.8-2.5c0-5.4-17.8-2.8-17.8-14.5s5.5-10.6,14.1-10.6,12.1,2.8,13.4,7.6l-9,3.5c-.8-2.1-2.4-3.2-4.7-3.2s-3.3.8-3.3,2.3c0,4.9,17.8,1.8,17.8,14.3s-5.7,11.3-14.7,11.3-13.2-3.2-15.2-9.1h0Z"/>
</svg>