<?xml version="1.0" encoding="UTF-8"?>
<svg id="Layer_1" data-name="Layer 1" xmlns="http://www.w3.org/2000/svg" viewBox="0 0 100 100">
  <defs>
    <style>
      .cls-1 {
        fill: #0c1d98;
      }
    </style>
  </defs>
  <path class="cls-1" d="M87.37,42.54c-1.79,0-3.43.63-4.71,1.68l-6.19-6.19c3.59-4.21,3.35-10.57-.67-14.5-2-1.95-4.62-3.02-7.41-3.02-.05,0-.09,0-.14,0-2.51.03-4.87.93-6.75,2.53l-5.71-5.71c1.05-1.29,1.68-2.93,1.68-4.72,0-4.11-3.35-7.46-7.46-7.46s-7.46,3.35-7.46,7.46c0,1.79.63,3.43,1.68,4.71l-6.19,6.19c-1.96-1.67-4.44-2.54-7.02-2.53-2.84.04-5.49,1.18-7.47,3.21-1.98,2.03-3.05,4.71-3.01,7.55.03,2.51.92,4.87,2.53,6.75l-5.71,5.71c-1.29-1.05-2.93-1.68-4.71-1.68-4.11,0-7.46,3.35-7.46,7.46s3.35,7.46,7.46,7.46c1.79,0,3.43-.63,4.71-1.68l6.19,6.19c-1.67,1.96-2.57,4.43-2.53,7.02.04,2.84,1.18,5.49,3.21,7.47,2.03,1.98,4.71,3.07,7.55,3.01,2.51-.03,4.87-.92,6.75-2.53l5.71,5.71c-1.05,1.29-1.68,2.93-1.68,4.71,0,4.11,3.35,7.46,7.46,7.46s7.46-3.35,7.46-7.46c0-1.79-.63-3.43-1.68-4.72l6.19-6.19c1.96,1.67,4.42,2.53,7.03,2.54,2.84-.04,5.49-1.18,7.47-3.21,3.86-3.96,4-10.18.48-14.3l5.71-5.71c1.29,1.05,2.93,1.68,4.71,1.68,4.11,0,7.46-3.35,7.46-7.46s-3.35-7.46-7.46-7.46ZM87.37,55.96c-1.37,0-2.64-.47-3.64-1.25-.4-.31-.75-.66-1.06-1.06-.78-1.01-1.25-2.27-1.25-3.64s.47-2.64,1.25-3.64c.31-.4.66-.75,1.06-1.06,1.01-.78,2.27-1.25,3.64-1.25,3.29,0,5.96,2.67,5.96,5.96s-2.67,5.96-5.96,5.96ZM68.26,22.02s.08,0,.12,0c2.39,0,4.65.92,6.36,2.59,3.43,3.34,3.66,8.74.66,12.36l-12.85-12.85c1.6-1.33,3.59-2.07,5.71-2.1ZM74.35,38.04c-1.63,1.41-3.68,2.2-5.86,2.23-2.47.02-4.74-.89-6.49-2.59s-2.72-3.98-2.75-6.42c-.03-2.26.76-4.4,2.23-6.09l12.87,12.87ZM65.7,49.8c.05,4.19-1.53,8.16-4.46,11.16-6.04,6.2-16.01,6.33-22.21.29-6.2-6.04-6.33-16.01-.29-22.21,0,0,0,0,0,0,6.05-6.2,16.01-6.33,22.21-.29,3,2.93,4.69,6.85,4.74,11.05ZM55.96,12.63c0,1.37-.47,2.64-1.25,3.65-.31.4-.66.75-1.06,1.06-1.01.78-2.27,1.25-3.64,1.25s-2.64-.47-3.65-1.26c-.4-.31-.75-.66-1.06-1.06-.78-1.01-1.25-2.27-1.25-3.64,0-3.29,2.67-5.96,5.96-5.96s5.96,2.67,5.96,5.96ZM45.29,18.4c1.29,1.05,2.93,1.69,4.72,1.69s3.43-.63,4.71-1.68l5.7,5.7c-1.76,1.98-2.7,4.51-2.66,7.17.02,1.3.27,2.57.73,3.75-5.38-3.05-12.05-2.96-17.35.22.43-1.19.65-2.46.63-3.76-.03-2.57-.97-5-2.66-6.9l6.18-6.18ZM38.04,25.65c1.41,1.63,2.2,3.68,2.23,5.86.03,2.43-.89,4.73-2.58,6.48,0,0,0,0,0,0,0,0,0,0,0,0-1.7,1.74-3.98,2.72-6.41,2.75-2.24.04-4.4-.76-6.09-2.23l12.87-12.87ZM22.02,31.74c-.03-2.44.89-4.74,2.59-6.48s3.98-2.72,6.42-2.75c.04,0,.08,0,.12,0,2.15,0,4.18.74,5.82,2.1l-12.85,12.85c-1.33-1.6-2.07-3.6-2.1-5.71ZM6.67,50c0-3.29,2.67-5.96,5.96-5.96,1.37,0,2.64.47,3.64,1.25.4.31.75.66,1.06,1.06.78,1.01,1.25,2.27,1.25,3.64s-.47,2.64-1.25,3.65c-.31.4-.66.75-1.06,1.06-1.01.78-2.27,1.25-3.64,1.25-3.29,0-5.96-2.67-5.96-5.96ZM18.4,54.71c1.05-1.29,1.68-2.93,1.68-4.72s-.63-3.43-1.68-4.71l5.7-5.7c1.98,1.76,4.5,2.7,7.17,2.66,1.3-.02,2.57-.27,3.75-.73-3.05,5.38-2.96,12.05.22,17.35-1.19-.43-2.48-.63-3.76-.63-2.57.03-5,.97-6.9,2.66l-6.18-6.18ZM31.74,77.98c-2.4.06-4.74-.89-6.48-2.59-1.75-1.7-2.72-3.98-2.76-6.42-.03-2.19.71-4.27,2.1-5.94l12.85,12.85c-1.6,1.33-3.59,2.07-5.71,2.1ZM25.65,61.96c1.63-1.41,3.68-2.2,5.86-2.23,2.47,0,4.74.89,6.48,2.59,1.75,1.7,2.72,3.98,2.75,6.42.03,2.26-.76,4.4-2.23,6.09l-12.87-12.87ZM50,93.33c-3.29,0-5.96-2.67-5.96-5.96,0-1.37.47-2.64,1.25-3.64.31-.4.66-.75,1.06-1.06,1.01-.78,2.27-1.26,3.65-1.26s2.63.47,3.64,1.25c.4.31.75.66,1.06,1.06.78,1.01,1.25,2.27,1.25,3.65,0,3.29-2.67,5.96-5.96,5.96ZM54.71,81.6c-1.29-1.05-2.93-1.68-4.71-1.68s-3.43.63-4.72,1.69l-5.7-5.7c1.76-1.98,2.7-4.51,2.66-7.17-.02-1.3-.27-2.57-.73-3.75,5.38,3.05,12.06,2.96,17.36-.23-1.29,3.57-.61,7.69,2.02,10.67l-6.18,6.18ZM61.96,74.35c-3.07-3.54-2.97-8.92.36-12.34,0,0,0,0,0,0h0c3.39-3.47,8.89-3.67,12.51-.53l-12.87,12.87ZM75.39,74.75c-1.7,1.75-3.98,2.72-6.42,2.75-2.17,0-4.27-.71-5.94-2.1l12.85-12.85c2.94,3.54,2.79,8.82-.49,12.19ZM75.89,60.42c-2-1.78-4.52-2.66-7.04-2.66-1.32,0-2.64.24-3.88.73,1.49-2.62,2.27-5.61,2.23-8.71-.04-3.1-.89-6.06-2.45-8.64,1.19.43,2.46.64,3.76.63,2.57-.03,5-.97,6.9-2.66l6.18,6.18c-1.05,1.29-1.68,2.93-1.68,4.71s.63,3.43,1.68,4.71l-5.7,5.7Z"/>
  <path class="cls-1" d="M47.48,50c0,1.39,1.13,2.52,2.52,2.52s2.52-1.13,2.52-2.52-1.13-2.52-2.52-2.52-2.52,1.13-2.52,2.52ZM50,48.52c.81,0,1.48.66,1.48,1.48s-.66,1.48-1.48,1.48-1.48-.66-1.48-1.48.66-1.48,1.48-1.48Z"/>
</svg>