<?xml version="1.0" encoding="UTF-8"?>
<svg id="Layer_1" data-name="Layer 1" xmlns="http://www.w3.org/2000/svg" viewBox="0 0 100 100">
  <defs>
    <style>
      .cls-1 {
        fill: #0c1d98;
      }
    </style>
  </defs>
  <path class="cls-1" d="M32.42,61.93c-.41.04-.71.41-.67.82l3.09,29.92c.04.39.37.67.75.67.03,0,.05,0,.08,0,.41-.04.71-.41.67-.82l-3.09-29.92c-.04-.41-.41-.72-.82-.67Z"/>
  <path class="cls-1" d="M41.78,69.29c-.24-.33-.71-.41-1.05-.17-.34.24-.41.71-.17,1.05l17.66,24.35c.15.2.38.31.61.31.15,0,.31-.05.44-.14.33-.24.41-.71.17-1.05l-17.66-24.35Z"/>
  <path class="cls-1" d="M92.52,63.67l-29.92,3.09c-.41.04-.71.41-.67.82.04.39.37.67.75.67.03,0,.05,0,.08,0l29.92-3.09c.41-.04.71-.41.67-.82-.04-.41-.4-.71-.82-.67Z"/>
  <path class="cls-1" d="M80.01,83.06l-27.48-12.23c-.37-.17-.82,0-.99.38-.17.38,0,.82.38.99l27.48,12.23c.1.04.2.06.3.06.29,0,.56-.17.69-.45.17-.38,0-.82-.38-.99Z"/>
  <path class="cls-1" d="M37.25,31.75l-29.92,3.09c-.41.04-.71.41-.67.82.04.39.37.67.75.67.03,0,.05,0,.08,0l29.92-3.09c.41-.04.71-.41.67-.82-.04-.41-.41-.71-.82-.67Z"/>
  <path class="cls-1" d="M29.83,40.56L5.48,58.22c-.33.24-.41.71-.17,1.05.15.2.38.31.61.31.15,0,.31-.05.44-.14l24.35-17.66c.33-.24.41-.71.17-1.05-.24-.34-.71-.41-1.05-.17Z"/>
  <path class="cls-1" d="M71.21,48.47c.1.04.2.06.3.06.29,0,.56-.17.69-.45l12.23-27.48c.17-.38,0-.82-.38-.99-.37-.17-.82,0-.99.38l-12.23,27.48c-.17.38,0,.82.38.99Z"/>
  <path class="cls-1" d="M28.79,51.53c-.38-.17-.82,0-.99.38l-12.23,27.48c-.17.38,0,.82.38.99.1.04.2.06.3.06.29,0,.56-.17.69-.45l12.23-27.48c.17-.38,0-.82-.38-.99Z"/>
  <path class="cls-1" d="M58.22,30.71c.15.2.38.31.61.31.15,0,.31-.05.44-.14.33-.24.41-.71.17-1.05L41.78,5.48c-.24-.33-.71-.41-1.05-.17-.33.24-.41.71-.17,1.05l17.66,24.35Z"/>
  <path class="cls-1" d="M19.99,16.94l27.48,12.23c.1.04.2.06.3.06.29,0,.56-.17.69-.45.17-.38,0-.82-.38-.99l-27.48-12.23c-.38-.17-.82,0-.99.38-.17.38,0,.82.38.99Z"/>
  <path class="cls-1" d="M93.64,40.56l-24.35,17.66c-.33.24-.41.71-.17,1.05.15.2.38.31.61.31.15,0,.31-.05.44-.14l24.35-17.66c.33-.24.41-.71.17-1.05-.24-.34-.71-.41-1.05-.17Z"/>
  <path class="cls-1" d="M67.5,38.08s.05,0,.08,0c.41-.04.71-.41.67-.82l-3.09-29.92c-.04-.41-.4-.7-.82-.67-.41.04-.71.41-.67.82l3.09,29.92c.04.39.37.67.75.67Z"/>
</svg>