<?xml version="1.0" encoding="UTF-8"?>
<svg id="Layer_1" data-name="Layer 1" xmlns="http://www.w3.org/2000/svg" viewBox="0 0 100 100">
  <defs>
    <style>
      .cls-1 {
        fill: #faf5ea;
      }
    </style>
  </defs>
  <path class="cls-1" d="M50,27.74c-12.27,0-22.26,9.98-22.26,22.26s9.99,22.26,22.26,22.26,22.26-9.98,22.26-22.26-9.98-22.26-22.26-22.26ZM50,70.76c-11.45,0-20.76-9.31-20.76-20.76s9.31-20.76,20.76-20.76,20.76,9.31,20.76,20.76-9.31,20.76-20.76,20.76Z"/>
  <path class="cls-1" d="M50,43.67c-3.49,0-6.33,2.84-6.33,6.33s2.84,6.33,6.33,6.33,6.33-2.84,6.33-6.33-2.84-6.33-6.33-6.33ZM50,54.83c-2.66,0-4.83-2.17-4.83-4.83s2.17-4.83,4.83-4.83,4.83,2.16,4.83,4.83-2.17,4.83-4.83,4.83Z"/>
  <path class="cls-1" d="M87.44,42.61s0,0,0,0c-2.98-15.13-14.91-27.06-30.05-30.05,0,0,0,0,0,0,0-4.08-3.32-7.39-7.39-7.39s-7.39,3.32-7.39,7.39c0,0,0,0,0,0-15.13,2.98-27.06,14.91-30.05,30.05,0,0,0,0,0,0-4.08,0-7.39,3.32-7.39,7.39s3.32,7.39,7.39,7.39c0,0,0,0,0,0,2.98,15.13,14.91,27.06,30.05,30.05,0,0,0,0,0,0,0,4.08,3.32,7.39,7.39,7.39s7.39-3.32,7.39-7.39c0,0,0,0,0,0,15.13-2.98,27.06-14.91,30.05-30.05,0,0,0,0,0,0,4.08,0,7.39-3.32,7.39-7.39s-3.32-7.39-7.39-7.39ZM50,6.67c3.25,0,5.89,2.64,5.89,5.89s-2.64,5.89-5.89,5.89-5.89-2.64-5.89-5.89,2.64-5.89,5.89-5.89ZM6.67,50c0-3.25,2.64-5.89,5.89-5.89s5.89,2.64,5.89,5.89-2.64,5.89-5.89,5.89-5.89-2.64-5.89-5.89ZM50,93.33c-3.25,0-5.89-2.64-5.89-5.89s2.64-5.89,5.89-5.89,5.89,2.64,5.89,5.89-2.64,5.89-5.89,5.89ZM57.24,85.94c-.7-3.36-3.68-5.89-7.24-5.89s-6.54,2.53-7.24,5.89c-14.43-2.9-25.8-14.27-28.7-28.7,3.36-.7,5.89-3.68,5.89-7.24s-2.53-6.54-5.89-7.24c2.9-14.43,14.27-25.8,28.7-28.7.7,3.36,3.68,5.89,7.24,5.89s6.54-2.53,7.24-5.89c14.43,2.9,25.8,14.27,28.7,28.7-3.36.7-5.89,3.68-5.89,7.24s2.53,6.54,5.89,7.24c-2.9,14.43-14.27,25.8-28.7,28.7ZM87.44,55.89c-3.25,0-5.89-2.64-5.89-5.89s2.64-5.89,5.89-5.89,5.89,2.64,5.89,5.89-2.64,5.89-5.89,5.89Z"/>
</svg>