<?xml version="1.0" encoding="UTF-8"?>
<svg id="Layer_1" data-name="Layer 1" xmlns="http://www.w3.org/2000/svg" viewBox="0 0 100 100">
  <defs>
    <style>
      .cls-1 {
        fill: #faf5ea;
      }
    </style>
  </defs>
  <path class="cls-1" d="M52.63,7.74c-21.35,0-39.02,15.92-41.84,36.5-3.16.18-5.67,2.79-5.67,5.99s2.55,5.86,5.74,6c3.03,20.35,20.59,36.02,41.77,36.02,23.21,0,42.1-18.81,42.25-41.98,0-.01,0-.02,0-.04,0,0,0-.02,0-.03,0-.07,0-.14,0-.21,0-23.3-18.96-42.26-42.25-42.26ZM17.08,50.99h15.81c.52,10.44,9.17,18.77,19.73,18.77,6.41,0,12.12-3.07,15.73-7.82-4.59,10.34-14.96,17.57-26.98,17.57-14.19,0-26.06-10.06-28.87-23.43,2.41-.57,4.26-2.59,4.57-5.09ZM52.63,68.26c-9.74,0-17.72-7.66-18.23-17.27h31.28c.3,2.36,1.96,4.3,4.17,4.99-2.48,7.13-9.25,12.28-17.22,12.28ZM71.63,54.75c-2.49,0-4.51-2.02-4.51-4.51s2.02-4.51,4.51-4.51,4.51,2.02,4.51,4.51-2.02,4.51-4.51,4.51ZM65.68,49.49h-31.3c.27-9.83,8.35-17.75,18.25-17.75,8.13,0,15.01,5.36,17.36,12.72-2.28.65-4.01,2.62-4.31,5.03ZM52.63,30.24c-10.72,0-19.48,8.59-19.75,19.25h-15.8c-.32-2.53-2.21-4.57-4.66-5.12,2.64-13.59,14.61-23.88,28.96-23.88,12.02,0,22.39,7.23,26.98,17.57-3.61-4.75-9.32-7.82-15.73-7.82ZM6.61,50.24c0-2.49,2.02-4.51,4.51-4.51s4.51,2.02,4.51,4.51-2.02,4.51-4.51,4.51-4.51-2.02-4.51-4.51ZM52.63,90.75c-16.16,0-30.15-9.45-36.74-23.12,5.6,8.07,14.94,13.37,25.49,13.37,14.96,0,27.47-10.65,30.36-24.76,3.01-.05,5.48-2.33,5.85-5.25h15.78c-.53,22.02-18.6,39.77-40.74,39.77ZM77.59,49.49c-.36-2.89-2.79-5.15-5.76-5.25-2.71-14.35-15.33-25.25-30.46-25.25-10.55,0-19.89,5.3-25.49,13.37,6.59-13.67,20.58-23.12,36.74-23.12,22.3,0,40.48,18.01,40.75,40.24h-15.79Z"/>
</svg>