<?xml version="1.0" encoding="UTF-8"?>
<svg id="Layer_1" data-name="Layer 1" xmlns="http://www.w3.org/2000/svg" viewBox="0 0 100 100">
  <defs>
    <style>
      .cls-1 {
        fill: #faf5ea;
      }
    </style>
  </defs>
  <path class="cls-1" d="M57.1,32.86c.09.04.19.06.29.06.29,0,.57-.17.69-.46l9.46-22.81c.16-.38-.02-.82-.41-.98-.38-.16-.82.02-.98.41l-9.46,22.81c-.16.38.02.82.41.98Z"/>
  <path class="cls-1" d="M63.12,36.88c.15.15.34.22.53.22s.38-.07.53-.22l17.46-17.46c.29-.29.29-.77,0-1.06s-.77-.29-1.06,0l-17.46,17.46c-.29.29-.29.77,0,1.06Z"/>
  <path class="cls-1" d="M9.07,33.85l22.81,9.46c.09.04.19.06.29.06.29,0,.57-.17.69-.46.16-.38-.02-.82-.41-.98l-22.81-9.46c-.38-.16-.82.02-.98.41-.16.38.02.82.41.98Z"/>
  <path class="cls-1" d="M67.14,42.9c.12.29.4.46.69.46.1,0,.19-.02.29-.06l22.81-9.46c.38-.16.56-.6.41-.98-.16-.38-.6-.56-.98-.41l-22.81,9.46c-.38.16-.56.6-.41.98Z"/>
  <path class="cls-1" d="M32.86,57.1c-.16-.38-.6-.56-.98-.41l-22.81,9.46c-.38.16-.56.6-.41.98.12.29.4.46.69.46.1,0,.19-.02.29-.06l22.81-9.46c.38-.16.56-.6.41-.98Z"/>
  <path class="cls-1" d="M50,31.45c.41,0,.75-.34.75-.75V6.01c0-.41-.34-.75-.75-.75s-.75.34-.75.75v24.69c0,.41.34.75.75.75Z"/>
  <path class="cls-1" d="M35.82,36.88c.15.15.34.22.53.22s.38-.07.53-.22c.29-.29.29-.77,0-1.06l-17.46-17.46c-.29-.29-.77-.29-1.06,0s-.29.77,0,1.06l17.46,17.46Z"/>
  <path class="cls-1" d="M41.92,32.46c.12.29.4.46.69.46.1,0,.19-.02.29-.06.38-.16.56-.6.41-.98l-9.46-22.81c-.16-.38-.6-.56-.98-.41-.38.16-.56.6-.41.98l9.46,22.81Z"/>
  <path class="cls-1" d="M58.08,67.54c-.16-.38-.6-.56-.98-.41-.38.16-.56.6-.41.98l9.46,22.81c.12.29.4.46.69.46.1,0,.19-.02.29-.06.38-.16.56-.6.41-.98l-9.46-22.81Z"/>
  <path class="cls-1" d="M42.9,67.14c-.38-.16-.82.02-.98.41l-9.46,22.81c-.16.38.02.82.41.98.09.04.19.06.29.06.29,0,.57-.17.69-.46l9.46-22.81c.16-.38-.02-.82-.41-.98Z"/>
  <path class="cls-1" d="M36.88,63.12c-.29-.29-.77-.29-1.06,0l-17.46,17.46c-.29.29-.29.77,0,1.06.15.15.34.22.53.22s.38-.07.53-.22l17.46-17.46c.29-.29.29-.77,0-1.06Z"/>
  <path class="cls-1" d="M31.45,50c0-.41-.34-.75-.75-.75H6.01c-.41,0-.75.34-.75.75s.34.75.75.75h24.69c.41,0,.75-.34.75-.75Z"/>
  <path class="cls-1" d="M50,68.55c-.41,0-.75.34-.75.75v24.69c0,.41.34.75.75.75s.75-.34.75-.75v-24.69c0-.41-.34-.75-.75-.75Z"/>
  <path class="cls-1" d="M93.99,49.25h-24.69c-.41,0-.75.34-.75.75s.34.75.75.75h24.69c.41,0,.75-.34.75-.75s-.34-.75-.75-.75Z"/>
  <path class="cls-1" d="M90.93,66.15l-22.81-9.46c-.38-.16-.82.02-.98.41-.16.38.02.82.41.98l22.81,9.46c.09.04.19.06.29.06.29,0,.57-.17.69-.46.16-.38-.02-.82-.41-.98Z"/>
  <path class="cls-1" d="M50,39.28c-5.91,0-10.72,4.81-10.72,10.72s4.81,10.71,10.72,10.71,10.71-4.81,10.71-10.71-4.81-10.72-10.71-10.72ZM50,59.21c-5.08,0-9.22-4.13-9.22-9.21s4.13-9.22,9.22-9.22,9.21,4.13,9.21,9.22-4.13,9.21-9.21,9.21Z"/>
  <path class="cls-1" d="M64.18,63.12c-.29-.29-.77-.29-1.06,0s-.29.77,0,1.06l17.46,17.46c.15.15.34.22.53.22s.38-.07.53-.22c.29-.29.29-.77,0-1.06l-17.46-17.46Z"/>
</svg>