<?xml version="1.0" encoding="UTF-8"?>
<svg id="Layer_1" data-name="Layer 1" xmlns="http://www.w3.org/2000/svg" viewBox="0 0 100 100">
  <defs>
    <style>
      .cls-1 {
        fill: #f05223;
      }
    </style>
  </defs>
  <path class="cls-1" d="M46.86,86.86c-.13,0-.26-.03-.38-.1l-31.17-17.99c-.12-.06-.21-.16-.29-.28s-.1-.26-.1-.39v-35.99c0-.27.14-.52.38-.65l31.17-17.99c.23-.14.55-.14.77,0l31.17,17.99c.23.13.38.38.38.65v35.99c0,.13-.03.27-.1.39s-.17.22-.29.28l-7.77,4.49s-.03.02-.05.03l-7.72,4.46s-.07.05-.11.06l-15.52,8.96c-.12.07-.25.1-.38.1ZM17.19,68.11l29.68,17.13,6.28-3.63-29.68-17.13-6.28,3.63ZM24.97,63.61l29.68,17.13,6.29-3.63-29.68-17.13-6.29,3.63ZM32.76,59.12l29.68,17.13,6.3-3.64-29.68-17.13-6.3,3.63ZM40.55,54.62l29.68,17.13,6.31-3.64-6.59-3.81c-.05-.02-.1-.05-.15-.08l-7.7-4.45s-.03-.01-.04-.02l-7.76-4.48s-.02-.01-.03-.02l-7.4-4.27-6.31,3.64ZM70.99,63.17l6.29,3.63v-34.27l-6.29-3.63v34.27ZM16.44,59.54v7.27l6.59-3.81s.08-.05.13-.07l22.96-13.26v-7.27l-29.68,17.13ZM63.2,58.67l6.29,3.63V28.04l-6.29-3.63v34.27ZM16.44,50.54v7.27l29.68-17.13v-7.27l-29.68,17.13ZM55.41,54.17l6.29,3.63V23.54l-6.29-3.63v34.27ZM47.61,49.67l6.29,3.63V19.04l-6.29-3.63v34.27ZM16.44,41.54v7.27l29.68-17.13v-7.27l-29.68,17.13ZM16.44,32.54v7.27l29.68-17.13v-7.27l-29.68,17.13Z"/>
</svg>