<?xml version="1.0" encoding="UTF-8"?>
<svg id="Layer_1" data-name="Layer 1" xmlns="http://www.w3.org/2000/svg" viewBox="0 0 176.78 161.38">
  <defs>
    <style>
      .cls-1 {
        fill: #f05223;
      }
    </style>
  </defs>
  <path class="cls-1" d="M96.94,93.63c-.44,0-.8-.36-.8-.8v-7.59c0-.44.36-.8.8-.8s.8.36.8.8v7.59c0,.44-.36.8-.8.8ZM80.84,93.63c-.44,0-.8-.36-.8-.8v-7.59c0-.44.36-.8.8-.8s.8.36.8.8v7.59c0,.44-.36.8-.8.8ZM64.74,93.63c-.44,0-.8-.36-.8-.8v-7.59c0-.44.36-.8.8-.8s.8.36.8.8v7.59c0,.44-.36.8-.8.8ZM108.79,81.79h-7.59c-.44,0-.8-.36-.8-.8s.36-.8.8-.8h7.59c.44,0,.8.36.8.8s-.36.8-.8.8ZM92.68,81.79h-7.59c-.44,0-.8-.36-.8-.8s.36-.8.8-.8h7.59c.44,0,.8.36.8.8s-.36.8-.8.8ZM76.58,81.79h-7.58c-.44,0-.8-.36-.8-.8s.36-.8.8-.8h7.58c.44,0,.8.36.8.8s-.36.8-.8.8ZM60.48,81.79h-7.59c-.44,0-.8-.36-.8-.8s.36-.8.8-.8h7.59c.44,0,.8.36.8.8s-.36.8-.8.8ZM96.94,77.53c-.44,0-.8-.36-.8-.8v-7.59c0-.44.36-.8.8-.8s.8.36.8.8v7.59c0,.44-.36.8-.8.8ZM80.84,77.53c-.44,0-.8-.36-.8-.8v-7.59c0-.44.36-.8.8-.8s.8.36.8.8v7.59c0,.44-.36.8-.8.8ZM64.74,77.53c-.44,0-.8-.36-.8-.8v-7.59c0-.44.36-.8.8-.8s.8.36.8.8v7.59c0,.44-.36.8-.8.8ZM48.63,77.53c-.44,0-.8-.36-.8-.8v-7.59c0-.44.36-.8.8-.8s.8.36.8.8v7.59c0,.44-.36.8-.8.8ZM108.79,65.68h-7.59c-.44,0-.8-.36-.8-.8s.36-.8.8-.8h7.59c.44,0,.8.36.8.8s-.36.8-.8.8ZM92.68,65.68h-7.59c-.44,0-.8-.36-.8-.8s.36-.8.8-.8h7.59c.44,0,.8.36.8.8s-.36.8-.8.8ZM76.58,65.68h-7.58c-.44,0-.8-.36-.8-.8s.36-.8.8-.8h7.58c.44,0,.8.36.8.8s-.36.8-.8.8ZM60.48,65.68h-7.59c-.44,0-.8-.36-.8-.8s.36-.8.8-.8h7.59c.44,0,.8.36.8.8s-.36.8-.8.8ZM44.37,65.68h-7.58c-.44,0-.8-.36-.8-.8s.36-.8.8-.8h7.58c.44,0,.8.36.8.8s-.36.8-.8.8ZM96.94,61.42c-.44,0-.8-.36-.8-.8v-7.58c0-.44.36-.8.8-.8s.8.36.8.8v7.58c0,.44-.36.8-.8.8ZM80.84,61.42c-.44,0-.8-.36-.8-.8v-7.58c0-.44.36-.8.8-.8s.8.36.8.8v7.58c0,.44-.36.8-.8.8ZM64.74,61.42c-.44,0-.8-.36-.8-.8v-7.58c0-.44.36-.8.8-.8s.8.36.8.8v7.58c0,.44-.36.8-.8.8ZM48.63,61.42c-.44,0-.8-.36-.8-.8v-7.58c0-.44.36-.8.8-.8s.8.36.8.8v7.58c0,.44-.36.8-.8.8ZM108.79,49.58h-7.59c-.44,0-.8-.36-.8-.8s.36-.8.8-.8h7.59c.44,0,.8.36.8.8s-.36.8-.8.8ZM92.68,49.58h-7.59c-.44,0-.8-.36-.8-.8s.36-.8.8-.8h7.59c.44,0,.8.36.8.8s-.36.8-.8.8ZM76.58,49.58h-7.58c-.44,0-.8-.36-.8-.8s.36-.8.8-.8h7.58c.44,0,.8.36.8.8s-.36.8-.8.8ZM60.48,49.58h-7.59c-.44,0-.8-.36-.8-.8s.36-.8.8-.8h7.59c.44,0,.8.36.8.8s-.36.8-.8.8ZM44.37,49.58h-7.58c-.44,0-.8-.36-.8-.8s.36-.8.8-.8h7.58c.44,0,.8.36.8.8s-.36.8-.8.8ZM96.94,45.32c-.44,0-.8-.36-.8-.8v-7.59c0-.44.36-.8.8-.8s.8.36.8.8v7.59c0,.44-.36.8-.8.8ZM80.84,45.32c-.44,0-.8-.36-.8-.8v-7.59c0-.44.36-.8.8-.8s.8.36.8.8v7.59c0,.44-.36.8-.8.8ZM64.74,45.32c-.44,0-.8-.36-.8-.8v-7.59c0-.44.36-.8.8-.8s.8.36.8.8v7.59c0,.44-.36.8-.8.8ZM48.63,45.32c-.44,0-.8-.36-.8-.8v-7.59c0-.44.36-.8.8-.8s.8.36.8.8v7.59c0,.44-.36.8-.8.8ZM92.68,33.48h-7.59c-.44,0-.8-.36-.8-.8s.36-.8.8-.8h7.59c.44,0,.8.36.8.8s-.36.8-.8.8ZM76.58,33.48h-7.58c-.44,0-.8-.36-.8-.8s.36-.8.8-.8h7.58c.44,0,.8.36.8.8s-.36.8-.8.8ZM60.48,33.48h-7.59c-.44,0-.8-.36-.8-.8s.36-.8.8-.8h7.59c.44,0,.8.36.8.8s-.36.8-.8.8ZM44.37,33.48h-7.58c-.44,0-.8-.36-.8-.8s.36-.8.8-.8h7.58c.44,0,.8.36.8.8s-.36.8-.8.8ZM80.84,29.22c-.44,0-.8-.36-.8-.8v-7.59c0-.44.36-.8.8-.8s.8.36.8.8v7.59c0,.44-.36.8-.8.8ZM64.74,29.22c-.44,0-.8-.36-.8-.8v-7.59c0-.44.36-.8.8-.8s.8.36.8.8v7.59c0,.44-.36.8-.8.8ZM48.63,29.22c-.44,0-.8-.36-.8-.8v-7.59c0-.44.36-.8.8-.8s.8.36.8.8v7.59c0,.44-.36.8-.8.8Z"/>
  <path class="cls-1" d="M160.15,126.12c-.44,0-.8-.36-.8-.8v-7.59c0-.44.36-.8.8-.8s.8.36.8.8v7.59c0,.44-.36.8-.8.8ZM144.04,126.12c-.44,0-.8-.36-.8-.8v-7.59c0-.44.36-.8.8-.8s.8.36.8.8v7.59c0,.44-.36.8-.8.8ZM127.94,126.12c-.44,0-.8-.36-.8-.8v-7.59c0-.44.36-.8.8-.8s.8.36.8.8v7.59c0,.44-.36.8-.8.8ZM171.99,114.27h-7.59c-.44,0-.8-.36-.8-.8s.36-.8.8-.8h7.59c.44,0,.8.36.8.8s-.36.8-.8.8ZM155.89,114.27h-7.59c-.44,0-.8-.36-.8-.8s.36-.8.8-.8h7.59c.44,0,.8.36.8.8s-.36.8-.8.8ZM139.78,114.27h-7.58c-.44,0-.8-.36-.8-.8s.36-.8.8-.8h7.58c.44,0,.8.36.8.8s-.36.8-.8.8ZM123.68,114.27h-7.59c-.44,0-.8-.36-.8-.8s.36-.8.8-.8h7.59c.44,0,.8.36.8.8s-.36.8-.8.8ZM160.15,110.01c-.44,0-.8-.36-.8-.8v-7.59c0-.44.36-.8.8-.8s.8.36.8.8v7.59c0,.44-.36.8-.8.8ZM144.04,110.01c-.44,0-.8-.36-.8-.8v-7.59c0-.44.36-.8.8-.8s.8.36.8.8v7.59c0,.44-.36.8-.8.8ZM127.94,110.01c-.44,0-.8-.36-.8-.8v-7.59c0-.44.36-.8.8-.8s.8.36.8.8v7.59c0,.44-.36.8-.8.8ZM111.84,110.01c-.44,0-.8-.36-.8-.8v-7.59c0-.44.36-.8.8-.8s.8.36.8.8v7.59c0,.44-.36.8-.8.8ZM171.99,98.17h-7.59c-.44,0-.8-.36-.8-.8s.36-.8.8-.8h7.59c.44,0,.8.36.8.8s-.36.8-.8.8ZM155.89,98.17h-7.59c-.44,0-.8-.36-.8-.8s.36-.8.8-.8h7.59c.44,0,.8.36.8.8s-.36.8-.8.8ZM139.78,98.17h-7.58c-.44,0-.8-.36-.8-.8s.36-.8.8-.8h7.58c.44,0,.8.36.8.8s-.36.8-.8.8ZM123.68,98.17h-7.59c-.44,0-.8-.36-.8-.8s.36-.8.8-.8h7.59c.44,0,.8.36.8.8s-.36.8-.8.8ZM107.58,98.17h-7.58c-.44,0-.8-.36-.8-.8s.36-.8.8-.8h7.58c.44,0,.8.36.8.8s-.36.8-.8.8ZM160.15,93.91c-.44,0-.8-.36-.8-.8v-7.58c0-.44.36-.8.8-.8s.8.36.8.8v7.58c0,.44-.36.8-.8.8ZM144.04,93.91c-.44,0-.8-.36-.8-.8v-7.58c0-.44.36-.8.8-.8s.8.36.8.8v7.58c0,.44-.36.8-.8.8ZM127.94,93.91c-.44,0-.8-.36-.8-.8v-7.58c0-.44.36-.8.8-.8s.8.36.8.8v7.58c0,.44-.36.8-.8.8ZM111.84,93.91c-.44,0-.8-.36-.8-.8v-7.58c0-.44.36-.8.8-.8s.8.36.8.8v7.58c0,.44-.36.8-.8.8ZM171.99,82.07h-7.59c-.44,0-.8-.36-.8-.8s.36-.8.8-.8h7.59c.44,0,.8.36.8.8s-.36.8-.8.8ZM155.89,82.07h-7.59c-.44,0-.8-.36-.8-.8s.36-.8.8-.8h7.59c.44,0,.8.36.8.8s-.36.8-.8.8ZM139.78,82.07h-7.58c-.44,0-.8-.36-.8-.8s.36-.8.8-.8h7.58c.44,0,.8.36.8.8s-.36.8-.8.8ZM123.68,82.07h-7.59c-.44,0-.8-.36-.8-.8s.36-.8.8-.8h7.59c.44,0,.8.36.8.8s-.36.8-.8.8ZM107.58,82.07h-7.58c-.44,0-.8-.36-.8-.8s.36-.8.8-.8h7.58c.44,0,.8.36.8.8s-.36.8-.8.8ZM160.15,77.81c-.44,0-.8-.36-.8-.8v-7.59c0-.44.36-.8.8-.8s.8.36.8.8v7.59c0,.44-.36.8-.8.8ZM144.04,77.81c-.44,0-.8-.36-.8-.8v-7.59c0-.44.36-.8.8-.8s.8.36.8.8v7.59c0,.44-.36.8-.8.8ZM127.94,77.81c-.44,0-.8-.36-.8-.8v-7.59c0-.44.36-.8.8-.8s.8.36.8.8v7.59c0,.44-.36.8-.8.8ZM111.84,77.81c-.44,0-.8-.36-.8-.8v-7.59c0-.44.36-.8.8-.8s.8.36.8.8v7.59c0,.44-.36.8-.8.8ZM155.89,65.96h-7.59c-.44,0-.8-.36-.8-.8s.36-.8.8-.8h7.59c.44,0,.8.36.8.8s-.36.8-.8.8ZM139.78,65.96h-7.58c-.44,0-.8-.36-.8-.8s.36-.8.8-.8h7.58c.44,0,.8.36.8.8s-.36.8-.8.8ZM123.68,65.96h-7.59c-.44,0-.8-.36-.8-.8s.36-.8.8-.8h7.59c.44,0,.8.36.8.8s-.36.8-.8.8ZM107.58,65.96h-7.58c-.44,0-.8-.36-.8-.8s.36-.8.8-.8h7.58c.44,0,.8.36.8.8s-.36.8-.8.8ZM144.04,61.7c-.44,0-.8-.36-.8-.8v-7.59c0-.44.36-.8.8-.8s.8.36.8.8v7.59c0,.44-.36.8-.8.8ZM127.94,61.7c-.44,0-.8-.36-.8-.8v-7.59c0-.44.36-.8.8-.8s.8.36.8.8v7.59c0,.44-.36.8-.8.8ZM111.84,61.7c-.44,0-.8-.36-.8-.8v-7.59c0-.44.36-.8.8-.8s.8.36.8.8v7.59c0,.44-.36.8-.8.8Z"/>
  <path class="cls-1" d="M80.94,157.63c-.44,0-.8-.36-.8-.8v-7.59c0-.44.36-.8.8-.8s.8.36.8.8v7.59c0,.44-.36.8-.8.8ZM64.84,157.63c-.44,0-.8-.36-.8-.8v-7.59c0-.44.36-.8.8-.8s.8.36.8.8v7.59c0,.44-.36.8-.8.8ZM48.74,157.63c-.44,0-.8-.36-.8-.8v-7.59c0-.44.36-.8.8-.8s.8.36.8.8v7.59c0,.44-.36.8-.8.8ZM92.79,145.79h-7.59c-.44,0-.8-.36-.8-.8s.36-.8.8-.8h7.59c.44,0,.8.36.8.8s-.36.8-.8.8ZM76.68,145.79h-7.59c-.44,0-.8-.36-.8-.8s.36-.8.8-.8h7.59c.44,0,.8.36.8.8s-.36.8-.8.8ZM60.58,145.79h-7.58c-.44,0-.8-.36-.8-.8s.36-.8.8-.8h7.58c.44,0,.8.36.8.8s-.36.8-.8.8ZM44.48,145.79h-7.59c-.44,0-.8-.36-.8-.8s.36-.8.8-.8h7.59c.44,0,.8.36.8.8s-.36.8-.8.8ZM80.94,141.53c-.44,0-.8-.36-.8-.8v-7.59c0-.44.36-.8.8-.8s.8.36.8.8v7.59c0,.44-.36.8-.8.8ZM64.84,141.53c-.44,0-.8-.36-.8-.8v-7.59c0-.44.36-.8.8-.8s.8.36.8.8v7.59c0,.44-.36.8-.8.8ZM48.74,141.53c-.44,0-.8-.36-.8-.8v-7.59c0-.44.36-.8.8-.8s.8.36.8.8v7.59c0,.44-.36.8-.8.8ZM32.63,141.53c-.44,0-.8-.36-.8-.8v-7.59c0-.44.36-.8.8-.8s.8.36.8.8v7.59c0,.44-.36.8-.8.8ZM92.79,129.68h-7.59c-.44,0-.8-.36-.8-.8s.36-.8.8-.8h7.59c.44,0,.8.36.8.8s-.36.8-.8.8ZM76.68,129.68h-7.59c-.44,0-.8-.36-.8-.8s.36-.8.8-.8h7.59c.44,0,.8.36.8.8s-.36.8-.8.8ZM60.58,129.68h-7.58c-.44,0-.8-.36-.8-.8s.36-.8.8-.8h7.58c.44,0,.8.36.8.8s-.36.8-.8.8ZM44.48,129.68h-7.59c-.44,0-.8-.36-.8-.8s.36-.8.8-.8h7.59c.44,0,.8.36.8.8s-.36.8-.8.8ZM28.37,129.68h-7.58c-.44,0-.8-.36-.8-.8s.36-.8.8-.8h7.58c.44,0,.8.36.8.8s-.36.8-.8.8ZM80.94,125.42c-.44,0-.8-.36-.8-.8v-7.58c0-.44.36-.8.8-.8s.8.36.8.8v7.58c0,.44-.36.8-.8.8ZM64.84,125.42c-.44,0-.8-.36-.8-.8v-7.58c0-.44.36-.8.8-.8s.8.36.8.8v7.58c0,.44-.36.8-.8.8ZM48.74,125.42c-.44,0-.8-.36-.8-.8v-7.58c0-.44.36-.8.8-.8s.8.36.8.8v7.58c0,.44-.36.8-.8.8ZM32.63,125.42c-.44,0-.8-.36-.8-.8v-7.58c0-.44.36-.8.8-.8s.8.36.8.8v7.58c0,.44-.36.8-.8.8ZM92.79,113.58h-7.59c-.44,0-.8-.36-.8-.8s.36-.8.8-.8h7.59c.44,0,.8.36.8.8s-.36.8-.8.8ZM76.68,113.58h-7.59c-.44,0-.8-.36-.8-.8s.36-.8.8-.8h7.59c.44,0,.8.36.8.8s-.36.8-.8.8ZM60.58,113.58h-7.58c-.44,0-.8-.36-.8-.8s.36-.8.8-.8h7.58c.44,0,.8.36.8.8s-.36.8-.8.8ZM44.48,113.58h-7.59c-.44,0-.8-.36-.8-.8s.36-.8.8-.8h7.59c.44,0,.8.36.8.8s-.36.8-.8.8ZM28.37,113.58h-7.58c-.44,0-.8-.36-.8-.8s.36-.8.8-.8h7.58c.44,0,.8.36.8.8s-.36.8-.8.8ZM80.94,109.32c-.44,0-.8-.36-.8-.8v-7.59c0-.44.36-.8.8-.8s.8.36.8.8v7.59c0,.44-.36.8-.8.8ZM64.84,109.32c-.44,0-.8-.36-.8-.8v-7.59c0-.44.36-.8.8-.8s.8.36.8.8v7.59c0,.44-.36.8-.8.8ZM48.74,109.32c-.44,0-.8-.36-.8-.8v-7.59c0-.44.36-.8.8-.8s.8.36.8.8v7.59c0,.44-.36.8-.8.8ZM32.63,109.32c-.44,0-.8-.36-.8-.8v-7.59c0-.44.36-.8.8-.8s.8.36.8.8v7.59c0,.44-.36.8-.8.8ZM76.68,97.48h-7.59c-.44,0-.8-.36-.8-.8s.36-.8.8-.8h7.59c.44,0,.8.36.8.8s-.36.8-.8.8ZM60.58,97.48h-7.58c-.44,0-.8-.36-.8-.8s.36-.8.8-.8h7.58c.44,0,.8.36.8.8s-.36.8-.8.8ZM44.48,97.48h-7.59c-.44,0-.8-.36-.8-.8s.36-.8.8-.8h7.59c.44,0,.8.36.8.8s-.36.8-.8.8ZM28.37,97.48h-7.58c-.44,0-.8-.36-.8-.8s.36-.8.8-.8h7.58c.44,0,.8.36.8.8s-.36.8-.8.8ZM64.84,93.22c-.44,0-.8-.36-.8-.8v-7.59c0-.44.36-.8.8-.8s.8.36.8.8v7.59c0,.44-.36.8-.8.8ZM48.74,93.22c-.44,0-.8-.36-.8-.8v-7.59c0-.44.36-.8.8-.8s.8.36.8.8v7.59c0,.44-.36.8-.8.8ZM32.63,93.22c-.44,0-.8-.36-.8-.8v-7.59c0-.44.36-.8.8-.8s.8.36.8.8v7.59c0,.44-.36.8-.8.8Z"/>
  <path class="cls-1" d="M64.95,77.35c-.44,0-.8-.36-.8-.8v-7.59c0-.44.36-.8.8-.8s.8.36.8.8v7.59c0,.44-.36.8-.8.8ZM48.84,77.35c-.44,0-.8-.36-.8-.8v-7.59c0-.44.36-.8.8-.8s.8.36.8.8v7.59c0,.44-.36.8-.8.8ZM32.74,77.35c-.44,0-.8-.36-.8-.8v-7.59c0-.44.36-.8.8-.8s.8.36.8.8v7.59c0,.44-.36.8-.8.8ZM76.79,65.51h-7.59c-.44,0-.8-.36-.8-.8s.36-.8.8-.8h7.59c.44,0,.8.36.8.8s-.36.8-.8.8ZM60.69,65.51h-7.59c-.44,0-.8-.36-.8-.8s.36-.8.8-.8h7.59c.44,0,.8.36.8.8s-.36.8-.8.8ZM44.58,65.51h-7.58c-.44,0-.8-.36-.8-.8s.36-.8.8-.8h7.58c.44,0,.8.36.8.8s-.36.8-.8.8ZM28.48,65.51h-7.59c-.44,0-.8-.36-.8-.8s.36-.8.8-.8h7.59c.44,0,.8.36.8.8s-.36.8-.8.8ZM64.95,61.25c-.44,0-.8-.36-.8-.8v-7.59c0-.44.36-.8.8-.8s.8.36.8.8v7.59c0,.44-.36.8-.8.8ZM48.84,61.25c-.44,0-.8-.36-.8-.8v-7.59c0-.44.36-.8.8-.8s.8.36.8.8v7.59c0,.44-.36.8-.8.8ZM32.74,61.25c-.44,0-.8-.36-.8-.8v-7.59c0-.44.36-.8.8-.8s.8.36.8.8v7.59c0,.44-.36.8-.8.8ZM16.64,61.25c-.44,0-.8-.36-.8-.8v-7.59c0-.44.36-.8.8-.8s.8.36.8.8v7.59c0,.44-.36.8-.8.8ZM76.79,49.4h-7.59c-.44,0-.8-.36-.8-.8s.36-.8.8-.8h7.59c.44,0,.8.36.8.8s-.36.8-.8.8ZM60.69,49.4h-7.59c-.44,0-.8-.36-.8-.8s.36-.8.8-.8h7.59c.44,0,.8.36.8.8s-.36.8-.8.8ZM44.58,49.4h-7.58c-.44,0-.8-.36-.8-.8s.36-.8.8-.8h7.58c.44,0,.8.36.8.8s-.36.8-.8.8ZM28.48,49.4h-7.59c-.44,0-.8-.36-.8-.8s.36-.8.8-.8h7.59c.44,0,.8.36.8.8s-.36.8-.8.8ZM12.38,49.4h-7.58c-.44,0-.8-.36-.8-.8s.36-.8.8-.8h7.58c.44,0,.8.36.8.8s-.36.8-.8.8ZM64.95,45.14c-.44,0-.8-.36-.8-.8v-7.58c0-.44.36-.8.8-.8s.8.36.8.8v7.58c0,.44-.36.8-.8.8ZM48.84,45.14c-.44,0-.8-.36-.8-.8v-7.58c0-.44.36-.8.8-.8s.8.36.8.8v7.58c0,.44-.36.8-.8.8ZM32.74,45.14c-.44,0-.8-.36-.8-.8v-7.58c0-.44.36-.8.8-.8s.8.36.8.8v7.58c0,.44-.36.8-.8.8ZM16.64,45.14c-.44,0-.8-.36-.8-.8v-7.58c0-.44.36-.8.8-.8s.8.36.8.8v7.58c0,.44-.36.8-.8.8ZM76.79,33.3h-7.59c-.44,0-.8-.36-.8-.8s.36-.8.8-.8h7.59c.44,0,.8.36.8.8s-.36.8-.8.8ZM60.69,33.3h-7.59c-.44,0-.8-.36-.8-.8s.36-.8.8-.8h7.59c.44,0,.8.36.8.8s-.36.8-.8.8ZM44.58,33.3h-7.58c-.44,0-.8-.36-.8-.8s.36-.8.8-.8h7.58c.44,0,.8.36.8.8s-.36.8-.8.8ZM28.48,33.3h-7.59c-.44,0-.8-.36-.8-.8s.36-.8.8-.8h7.59c.44,0,.8.36.8.8s-.36.8-.8.8ZM12.38,33.3h-7.58c-.44,0-.8-.36-.8-.8s.36-.8.8-.8h7.58c.44,0,.8.36.8.8s-.36.8-.8.8ZM64.95,29.04c-.44,0-.8-.36-.8-.8v-7.59c0-.44.36-.8.8-.8s.8.36.8.8v7.59c0,.44-.36.8-.8.8ZM48.84,29.04c-.44,0-.8-.36-.8-.8v-7.59c0-.44.36-.8.8-.8s.8.36.8.8v7.59c0,.44-.36.8-.8.8ZM32.74,29.04c-.44,0-.8-.36-.8-.8v-7.59c0-.44.36-.8.8-.8s.8.36.8.8v7.59c0,.44-.36.8-.8.8ZM16.64,29.04c-.44,0-.8-.36-.8-.8v-7.59c0-.44.36-.8.8-.8s.8.36.8.8v7.59c0,.44-.36.8-.8.8ZM60.69,17.2h-7.59c-.44,0-.8-.36-.8-.8s.36-.8.8-.8h7.59c.44,0,.8.36.8.8s-.36.8-.8.8ZM44.58,17.2h-7.58c-.44,0-.8-.36-.8-.8s.36-.8.8-.8h7.58c.44,0,.8.36.8.8s-.36.8-.8.8ZM28.48,17.2h-7.59c-.44,0-.8-.36-.8-.8s.36-.8.8-.8h7.59c.44,0,.8.36.8.8s-.36.8-.8.8ZM12.38,17.2h-7.58c-.44,0-.8-.36-.8-.8s.36-.8.8-.8h7.58c.44,0,.8.36.8.8s-.36.8-.8.8ZM48.84,12.94c-.44,0-.8-.36-.8-.8v-7.59c0-.44.36-.8.8-.8s.8.36.8.8v7.59c0,.44-.36.8-.8.8ZM32.74,12.94c-.44,0-.8-.36-.8-.8v-7.59c0-.44.36-.8.8-.8s.8.36.8.8v7.59c0,.44-.36.8-.8.8ZM16.64,12.94c-.44,0-.8-.36-.8-.8v-7.59c0-.44.36-.8.8-.8s.8.36.8.8v7.59c0,.44-.36.8-.8.8Z"/>
</svg>